<svg width="70" height="65" viewBox="0 0 70 65" fill="none" xmlns="http://www.w3.org/2000/svg">
<path d="M65.7277 18.8178C68.3568 21.246 68.3568 25.1916 65.7277 27.3162L56.5258 35.8146L30.892 12.1405L40.0939 3.64216C42.723 1.21405 46.9953 1.21405 49.2958 3.64216L55.2113 9.10541L65.0704 0L69.6714 4.24919L59.8122 13.3546L65.7277 18.8178ZM46.6667 36.4216L42.0657 32.1724L32.8639 40.6708L25.9625 34.297L35.1643 25.7987L30.5634 21.5495L21.3615 30.0478L16.4319 25.7987L7.23005 34.297C4.60094 36.7251 4.60094 40.6708 7.23005 42.7954L13.1455 48.2587L0 60.3992L4.60094 64.6484L17.7465 52.5079L23.662 57.9711C26.2911 60.3992 30.5634 60.3992 32.8639 57.9711L42.0657 49.4727L37.4648 45.2235L46.6667 36.4216Z" fill="white"/>
</svg>
