<svg width="44" height="70" viewBox="0 0 44 70" fill="none" xmlns="http://www.w3.org/2000/svg">
<g clip-path="url(#clip0_575_193)">
<path d="M33.1543 40.6055L39.375 65.625L30.625 70L24.7461 43.5449C23.6979 43.6816 22.7409 43.75 21.875 43.75C21.0091 43.75 20.0521 43.6816 19.0039 43.5449L13.125 70L4.375 65.625L10.5957 40.6055C7.36003 38.6458 4.78516 36.014 2.87109 32.71C0.957031 29.4059 0 25.7943 0 21.875C0 17.9102 0.979818 14.2529 2.93945 10.9033C4.89909 7.55371 7.55371 4.89909 10.9033 2.93945C14.2529 0.979818 17.9102 0 21.875 0C25.8398 0 29.4971 0.979818 32.8467 2.93945C36.1963 4.89909 38.8509 7.55371 40.8105 10.9033C42.7702 14.2529 43.75 17.9102 43.75 21.875C43.75 25.7943 42.793 29.4059 40.8789 32.71C38.9648 36.014 36.39 38.6458 33.1543 40.6055Z" fill="#FFAD1B"/>
<g clip-path="url(#clip1_575_193)">
<path d="M33.1543 40.6055L39.375 65.625L30.625 70L24.7461 43.5449C23.6979 43.6816 22.7409 43.75 21.875 43.75C21.0091 43.75 20.0521 43.6816 19.0039 43.5449L13.125 70L4.375 65.625L10.5957 40.6055C7.36003 38.6458 4.78516 36.014 2.87109 32.71C0.957031 29.4059 0 25.7943 0 21.875C0 17.9102 0.979818 14.2529 2.93945 10.9033C4.89909 7.55371 7.55371 4.89909 10.9033 2.93945C14.2529 0.979818 17.9102 0 21.875 0C25.8398 0 29.4971 0.979818 32.8467 2.93945C36.1963 4.89909 38.8509 7.55371 40.8105 10.9033C42.7702 14.2529 43.75 17.9102 43.75 21.875C43.75 25.7943 42.793 29.4059 40.8789 32.71C38.9648 36.014 36.39 38.6458 33.1543 40.6055Z" fill="black"/>
</g>
</g>
<defs>
<clipPath id="clip0_575_193">
<rect width="43.75" height="70" fill="white"/>
</clipPath>
<clipPath id="clip1_575_193">
<rect width="43.75" height="70" fill="white"/>
</clipPath>
</defs>
</svg>
