<svg viewBox="0 0 548 496" fill="none" xmlns="http://www.w3.org/2000/svg">
<g clip-path="url(#clip0_650_531)">
<path d="M548 419.573H546.879L546 15.5L129.436 14.6036V13.4803H548V419.573Z" fill="black"/>
<path d="M410.72 2.2467H291.37V26.3988H410.72V2.2467Z" fill="black"/>
<path d="M194.994 2.2467H149.047V26.3988H194.994V2.2467Z" fill="black"/>
<path d="M105.902 136.488C113.638 136.488 119.91 130.201 119.91 122.446C119.91 114.691 113.638 108.404 105.902 108.404C98.1654 108.404 91.8937 114.691 91.8937 122.446C91.8937 130.201 98.1654 136.488 105.902 136.488Z" fill="#FFAD1B" fill-opacity="0.5"/>
<path d="M192.724 198.48C191.394 198.48 190.094 198.085 188.988 197.344C187.883 196.604 187.021 195.551 186.512 194.319C186.003 193.088 185.87 191.733 186.129 190.425C186.389 189.118 187.029 187.917 187.969 186.974C188.91 186.032 190.108 185.39 191.412 185.13C192.716 184.869 194.068 185.003 195.297 185.513C196.526 186.023 197.576 186.887 198.315 187.996C199.053 189.104 199.448 190.407 199.448 191.74C199.446 193.527 198.737 195.24 197.476 196.504C196.216 197.767 194.507 198.478 192.724 198.48ZM192.724 186.123C191.616 186.123 190.532 186.453 189.611 187.07C188.689 187.687 187.971 188.564 187.547 189.591C187.123 190.617 187.012 191.746 187.228 192.836C187.445 193.925 187.978 194.926 188.762 195.712C189.545 196.497 190.544 197.032 191.631 197.249C192.718 197.466 193.844 197.354 194.868 196.929C195.892 196.504 196.767 195.784 197.383 194.861C197.999 193.937 198.327 192.851 198.327 191.74C198.326 190.251 197.735 188.823 196.684 187.77C195.634 186.717 194.209 186.125 192.724 186.123Z" fill="black"/>
<path d="M151.463 85.3109H140.401V74.2228H151.463V85.3109ZM141.252 84.458H150.612V75.0757H141.252V84.458Z" fill="black"/>
<path d="M40.3182 166.799L32.7734 158.691L40.8624 151.128L48.4072 159.236L40.3182 166.799ZM33.976 158.733L40.3601 165.594L47.2046 159.194L40.8205 152.333L33.976 158.733Z" fill="#FFAD1B"/>
<path d="M242.622 28.0839C250.358 28.0839 256.63 21.7971 256.63 14.0419C256.63 6.28679 250.358 0 242.622 0C234.885 0 228.613 6.28679 228.613 14.0419C228.613 21.7971 234.885 28.0839 242.622 28.0839Z" fill="#FFAD1B"/>
<path d="M242.622 43.2491H0V44.3725H242.622V43.2491Z" fill="black"/>
<path d="M43.1452 57.8528C50.8817 57.8528 57.1534 51.566 57.1534 43.8109C57.1534 36.0557 50.8817 29.7689 43.1452 29.7689C35.4087 29.7689 29.137 36.0557 29.137 43.8109C29.137 51.566 35.4087 57.8528 43.1452 57.8528Z" fill="#FFAD1B"/>
<path d="M17.6552 442.525L17.0517 450.993V455.833C17.0517 455.833 15.8448 468.536 27.3103 467.326C38.7758 466.116 29.1207 447.969 29.1207 447.969L27.9138 444.34L17.6552 442.525Z" fill="#2F2E41"/>
<path d="M32.7414 423.773C32.7414 423.773 29.1207 424.983 30.3276 432.846C30.3276 432.846 33.3448 435.266 36.362 436.476C37.5003 436.975 38.5376 437.68 39.4225 438.554C42.5494 441.545 46.4342 443.62 50.655 444.554C53.5161 445.165 56.1438 445.096 56.8792 443.13C58.6896 438.291 49.6379 434.056 49.6379 434.056L42.3965 426.193L32.7414 423.773Z" fill="#2F2E41"/>
<path d="M71.362 342.716C71.362 342.716 82.2241 357.234 76.793 357.839C71.362 358.444 67.1379 345.136 67.1379 345.136L71.362 342.716Z" fill="#FBBEBE"/>
<path d="M23.0862 333.643L21.8793 375.986C21.8793 375.986 19.4655 383.849 20.0689 387.479C20.0689 387.479 19.0461 391.58 18.8837 393.175C18.8697 393.313 18.8621 393.432 18.8621 393.528C18.8621 394.738 14.0345 415.304 17.0517 429.822C17.0517 429.822 14.0345 441.315 17.6552 444.34L29.1207 444.945L28.5172 422.563L34.5517 388.689L37.5689 379.615C37.5689 379.615 32.7414 405.021 33.9482 413.49C33.9482 413.49 31.5345 420.748 32.1379 424.983C32.1379 424.983 32.7413 430.427 43 426.797L44.8103 417.119L59.4887 341.249L45.4138 334.852L23.0862 333.643Z" fill="#2F2E41"/>
<path d="M50.2413 267.708C56.2403 267.708 61.1034 262.833 61.1034 256.82C61.1034 250.807 56.2403 245.932 50.2413 245.932C44.2424 245.932 39.3793 250.807 39.3793 256.82C39.3793 262.833 44.2424 267.708 50.2413 267.708Z" fill="#FBBEBE"/>
<path d="M40.888 258.332L36.6639 267.406L47.5258 274.665L52.957 264.986L40.888 258.332Z" fill="#FBBEBE"/>
<path d="M49.6379 273.757L49.464 271.211C49.464 271.211 41.4967 267.913 38.0242 264.484L35.1551 266.498L18.2586 274.362L24.2931 337.877C24.2931 337.877 35.1551 336.667 41.7931 343.926C48.431 351.185 59.8965 340.901 59.8965 340.901V323.359L56.8793 303.397L59.8965 281.621L49.6379 273.757Z" fill="#FFAD1B"/>
<path d="M55.6724 281.016L59.8965 281.621C59.8965 281.621 61.6699 285.176 61.1212 296.979C61.1155 297.101 61.1096 297.224 61.1034 297.349C60.4999 309.447 62.9137 313.681 62.9137 313.681L73.1723 343.926L66.5344 347.555L56.8793 328.803L50.2413 290.09L55.6724 281.016Z" fill="#FFAD1B"/>
<path d="M62.4169 250.603C62.4572 249.851 62.3606 249.098 62.1319 248.38C61.5721 246.848 60.0983 245.873 58.6991 245.039C56.7358 243.867 54.701 242.739 52.4701 242.245C50.2392 241.75 47.7566 241.961 45.8991 243.294C44.7039 244.152 43.8528 245.4 43.0606 246.642C42.1574 247.959 41.4265 249.387 40.8858 250.89C40.8354 251.006 40.8236 251.135 40.8523 251.258C40.9091 251.375 40.9989 251.471 41.1103 251.536C42.6017 252.653 43.7218 253.145 42.6983 254.703C45.1671 252.15 46.923 251.434 49.3918 248.882C49.1024 249.15 49.5357 249.632 49.9294 249.614C50.3231 249.597 50.6911 249.354 51.0837 249.388C51.6557 249.438 51.9988 250.022 52.4243 250.408C52.8498 250.795 53.74 250.844 53.8121 250.273L55.3141 252.307C55.6132 252.196 55.8755 252.003 56.0719 251.751L57.6904 254.204L58.3718 253.472C58.6741 253.935 58.9462 254.416 59.1865 254.914C60.4531 253.862 60.8386 256.468 60.8396 257.085C62.2144 256.879 62.4019 251.722 62.4169 250.603Z" fill="#2F2E41"/>
<path d="M33.3448 339.087C33.3448 339.087 44.2069 353.604 38.7758 354.209C33.3448 354.814 29.1207 341.506 29.1207 341.506L33.3448 339.087Z" fill="#FBBEBE"/>
<path d="M20.6724 274.967L18.2586 274.362C18.2586 274.362 11.6207 283.436 10.4138 293.114C9.2069 302.793 8 314.891 8 314.891L28.5172 343.926L35.7586 338.482L20.069 311.261L25.5 303.398L20.6724 274.967Z" fill="#FFAD1B"/>
<path opacity="0.1" d="M22.7323 315.882L35.4569 338.18L23.9915 313.983L22.7323 315.882Z" fill="black"/>
</g>
<path d="M243.28 399.782H106V495.829H243.28V399.782Z" fill="#FFAD1B"/>
<path d="M256.728 476.17H118.327V379H256.728V476.17ZM119.448 475.047H255.607V380.123H119.448V475.047Z" fill="#3F3D56"/>
<path d="M548.211 234.323H180.235V235.956H548.211V234.323Z" fill="black"/>
<path d="M231.175 234.938H229.543V286.823H231.175V234.938Z" fill="black"/>
<path d="M365.062 327.949H280.947V234.887H282.579V326.317H365.062V327.949Z" fill="black"/>
<path d="M337.864 234.938H336.231V286.823H337.864V234.938Z" fill="black"/>
<path d="M365.256 327.176H363.623V379.06H365.256V327.176Z" fill="black"/>
<path d="M449.786 234.938H448.154V286.823H449.786V234.938Z" fill="black"/>
<path d="M505.748 234.938H504.115V286.823H505.748V234.938Z" fill="black"/>
<path d="M246.055 286.759H215.055V298.837H246.055V286.759Z" fill="#FFAD1B" fill-opacity="0.3"/>
<path d="M352 286H321V298.078H352V286Z" fill="black"/>
<path d="M464.813 286.759H433.813V298.837H464.813V286.759Z" fill="#FFAD1B" fill-opacity="0.5"/>
<path d="M518.687 286.759H487.687V298.837H518.687V286.759Z" fill="#FFAD1B"/>
<path d="M379.922 378.181H348.922V390.258H379.922V378.181Z" fill="black"/>
<path d="M203.259 225H120V244.59H203.259V225Z" fill="#FFAD1B"/>
<path d="M393.008 249.084C400.745 249.084 407.016 242.797 407.016 235.042C407.016 227.287 400.745 221 393.008 221C385.272 221 379 227.287 379 235.042C379 242.797 385.272 249.084 393.008 249.084Z" fill="#FFD68D"/>
<defs>
<clipPath id="clip0_650_531">
<rect width="548" height="457" fill="white"/>
</clipPath>
</defs>
</svg>
