<svg width="53" height="65" viewBox="0 0 53 65" fill="none" xmlns="http://www.w3.org/2000/svg">
<path d="M1.58855e-05 24.2436C-0.000120217 20.2404 1.07318 16.2994 3.12408 12.7726C5.17497 9.24576 8.13963 6.24289 11.7533 4.0321C15.367 1.8213 19.5173 0.4714 23.8336 0.102921C28.1498 -0.265559 32.4977 0.358856 36.4889 1.92041C40.4802 3.48196 43.9907 5.93205 46.7068 9.0519C49.423 12.1718 51.2603 15.8643 52.0547 19.7997C52.8492 23.7351 52.576 27.791 51.2596 31.6052C49.9432 35.4194 47.6246 38.8732 44.5107 41.6581C43.6226 42.45 42.9401 43.2743 42.5289 44.1592L39.1952 51.3068C39.026 51.669 38.7457 51.9776 38.3889 52.1944C38.032 52.4113 37.6142 52.5269 37.1871 52.527H15.3123C14.8844 52.5277 14.4657 52.4124 14.108 52.1956C13.7503 51.9787 13.4693 51.6696 13.2999 51.3068L9.97052 44.1551C9.49382 43.2107 8.82039 42.3622 7.98867 41.6581C5.4583 39.4001 3.44673 36.6943 2.07415 33.7022C0.701567 30.7101 -0.00386003 27.4932 1.58855e-05 24.2436ZM13.1249 58.5877C13.1249 58.0519 13.3553 57.538 13.7656 57.1592C14.1758 56.7803 14.7322 56.5675 15.3123 56.5675H37.1871C37.7672 56.5675 38.3236 56.7803 38.7338 57.1592C39.1441 57.538 39.3745 58.0519 39.3745 58.5877C39.3745 59.1235 39.1441 59.6374 38.7338 60.0162C38.3236 60.3951 37.7672 60.6079 37.1871 60.6079L36.2071 62.414C35.844 63.0851 35.2858 63.6495 34.595 64.0442C33.9042 64.4388 33.1081 64.648 32.2959 64.6484H20.2035C19.3913 64.648 18.5952 64.4388 17.9044 64.0442C17.2136 63.6495 16.6554 63.0851 16.2923 62.414L15.3123 60.6079C14.7322 60.6079 14.1758 60.3951 13.7656 60.0162C13.3553 59.6374 13.1249 59.1235 13.1249 58.5877Z" fill="black"/>
</svg>
