<svg width="100" height="70" viewBox="0 0 100 70" fill="none" xmlns="http://www.w3.org/2000/svg">
<path d="M99.2045 19.2C71.5217 -6.40469 28.4671 -6.39531 0.795179 19.2C-0.245445 20.1625 -0.265758 21.7922 0.740492 22.7906L6.09049 28.0984C7.04987 29.0516 8.59362 29.0719 9.59049 28.1578C32.3905 7.27031 67.6061 7.26562 90.4108 28.1578C91.4077 29.0719 92.9514 29.05 93.9108 28.0984L99.2608 22.7906C100.265 21.7922 100.245 20.1625 99.2045 19.2ZM49.9999 50C44.4764 50 39.9999 54.4766 39.9999 60C39.9999 65.5234 44.4764 70 49.9999 70C55.5233 70 59.9999 65.5234 59.9999 60C59.9999 54.4766 55.5233 50 49.9999 50ZM81.667 36.9391C63.6577 21.0125 36.3217 21.0297 18.3327 36.9391C17.2546 37.8922 17.2202 39.5469 18.2436 40.5562L23.6249 45.8672C24.5624 46.7922 26.0717 46.8547 27.0702 45.9922C40.1874 34.6531 59.842 34.6781 72.928 45.9922C73.9264 46.8547 75.4358 46.7937 76.3733 45.8672L81.7545 40.5562C82.7795 39.5469 82.7436 37.8906 81.667 36.9391V36.9391Z" fill="black"/>
</svg>
